<svg viewBox="0 0 1287 686" xmlns:dc="http://purl.org/dc/elements/1.1/" xmlns:cc="http://web.resource.org/cc/" xmlns:rdf="http://www.w3.org/1999/02/22-rdf-syntax-ns#" xmlns:svg="http://www.w3.org/2000/svg" xmlns="http://www.w3.org/2000/svg" xmlns:sodipodi="http://sodipodi.sourceforge.net/DTD/sodipodi-0.dtd" xmlns:inkscape="http://www.inkscape.org/namespaces/inkscape" width="400" height="218" id="phong-vectors" version="1.0"><defs id="defs4"><marker inkscape:stockid="Arrow1Mend" orient="auto" refY="0" refX="0" id="Arrow1Mend" style="overflow:visible"><path id="path2934" d="M 0 0 L 5 -5 L -12.5 0 L 5 5 L 0 0 z " style="fill-rule:evenodd;stroke:black;stroke-width:1pt;marker-start:none" transform="matrix(-0.4,0,0,-0.4,-4,0)"/></marker></defs><metadata id="metadata7"><rdf:RDF><cc:Work rdf:about=""><dc:format>image/svg+xml</dc:format><dc:type rdf:resource="http://purl.org/dc/dcmitype/StillImage"/></cc:Work></rdf:RDF></metadata><g inkscape:label="Layer 1" inkscape:groupmode="layer" id="layer1" transform="translate(200.699,94.93883)"><g id="g4006"><path style="fill:black;fill-opacity:1;fill-rule:evenodd;stroke:none;stroke-width:3.79999995;stroke-linecap:butt;stroke-linejoin:miter;stroke-miterlimit:4;stroke-dasharray:none;stroke-opacity:1" d="M 294.4 -1.8 L 290.6 -1.2 L 383.5 577.9 L 387.3 577.3 L 294.4 -1.8 z " id="path3996"/><path style="fill-rule:evenodd;stroke:black;stroke-width:1.51999998pt;marker-start:none" d="M 294.9 13.5 L 303.6 19.8 L 291.9 -5.2 L 288.6 22.2 L 294.9 13.5 z " id="path4012"/></g><g id="g4014"><path style="fill:black;fill-opacity:1;fill-rule:evenodd;stroke:none;stroke-width:3.79999995;stroke-linecap:butt;stroke-linejoin:miter;stroke-miterlimit:4;stroke-dasharray:none;stroke-opacity:1" d="M 382.5 -9.1 L 383.9 577.4 L 387.7 577.4 L 386.2 -9.1 L 382.5 -9.1 z " id="path3992"/><path style="fill-rule:evenodd;stroke:black;stroke-width:1.51999998pt;marker-start:none" d="M 384.4 6.1 L 392 13.7 L 384.4 -12.9 L 376.8 13.8 L 384.4 6.1 z " id="path4020"/></g><g id="g4030"><path style="fill:black;fill-opacity:1;fill-rule:evenodd;stroke:none;stroke-width:3.79999995;stroke-linecap:butt;stroke-linejoin:miter;stroke-miterlimit:4;stroke-dasharray:none;stroke-opacity:1" d="M 913.4 316.4 L 387.7 576.4 L 389.4 579.8 L 915.1 319.8 L 913.4 316.4 z " id="path1876"/><path style="fill-rule:evenodd;stroke:black;stroke-width:1.51999998pt;marker-start:none" d="M 900.7 324.8 L 897.2 335 L 917.7 316.4 L 890.5 321.4 L 900.7 324.8 z " id="path4036"/></g><g id="g3998"><path style="fill:black;fill-opacity:1;fill-rule:evenodd;stroke:none;stroke-width:3.79999995;stroke-linecap:butt;stroke-linejoin:miter;stroke-miterlimit:4;stroke-dasharray:none;stroke-opacity:1" d="M -136.3 316.4 L -138 319.8 L 387.7 579.8 L 389.4 576.4 L -136.3 316.4 z " id="path1878"/><path style="fill-rule:evenodd;stroke:black;stroke-width:1.51999998pt;marker-start:none" d="M -123.5 324.8 L -113.3 321.4 L -140.5 316.4 L -120.1 335 L -123.5 324.8 z " id="path4004"/></g><text xml:space="preserve" style="font-size:84.27222443px;font-style:normal;font-weight:normal;fill:black;fill-opacity:1;stroke:none;stroke-width:1px;stroke-linecap:butt;stroke-linejoin:miter;stroke-opacity:1;font-family:Bitstream Vera Sans" x="822.7" y="312" id="text2950"><tspan id="tspan2952" x="822.7" y="312">L</tspan></text><text id="text2954" y="327.1" x="-207.3" style="font-size:84.27222443px;font-style:normal;font-weight:normal;fill:black;fill-opacity:1;stroke:none;stroke-width:1px;stroke-linecap:butt;stroke-linejoin:miter;stroke-opacity:1;font-family:Bitstream Vera Sans" xml:space="preserve"><tspan y="327.1" x="-207.3" id="tspan2956">R</tspan></text><text xml:space="preserve" style="font-size:84.27222443px;font-style:normal;font-weight:normal;fill:black;fill-opacity:1;stroke:none;stroke-width:1px;stroke-linecap:butt;stroke-linejoin:miter;stroke-opacity:1;font-family:Bitstream Vera Sans" x="241.4" y="131.6" id="text2958"><tspan id="tspan2960" x="241.4" y="131.6">V</tspan></text><text id="text2962" y="13.9" x="396.7" style="font-size:84.27222443px;font-style:normal;font-weight:normal;fill:black;fill-opacity:1;stroke:none;stroke-width:1px;stroke-linecap:butt;stroke-linejoin:miter;stroke-opacity:1;font-family:Bitstream Vera Sans" xml:space="preserve"><tspan y="13.9" x="396.7" id="tspan2964">N</tspan></text><g id="g4022"><path style="fill:black;fill-opacity:1;fill-rule:evenodd;stroke:none;stroke-width:3.79999995;stroke-linecap:butt;stroke-linejoin:miter;stroke-miterlimit:4;stroke-dasharray:none;stroke-opacity:1" d="M 654.1 55.1 L 385.4 576.4 L 388.8 578.2 L 657.4 56.8 L 654.1 55.1 z " id="path3855"/><path style="fill-rule:evenodd;stroke:black;stroke-width:1.51999998pt;marker-start:none" d="M 648.8 69.5 L 652.1 79.7 L 657.5 52.6 L 638.5 72.8 L 648.8 69.5 z " id="path4028"/></g><text id="text3857" y="32" x="651.3" class="reveal-on-complete" style="font-size:84.27222443px;font-style:normal;font-weight:normal;fill:black;fill-opacity:1;stroke:none;stroke-width:1px;stroke-linecap:butt;stroke-linejoin:miter;stroke-opacity:1;font-family:Bitstream Vera Sans" xml:space="preserve"><tspan y="32" x="651.3" id="tspan3859">H</tspan></text><g id="g3979" transform="matrix(0.341951,0,0,0.341951,432.4147,-336.0555)"><path inkscape:export-ydpi="42.360142" inkscape:export-xdpi="42.360142" inkscape:export-filename="P:\IconTests\EventIcons.png" id="path1872" d="M -671.3 857.6 C -541.5 716.5 -359.4 664.1 -266.1 828" style="fill:none;fill-rule:evenodd;stroke:black;stroke-width:20.31610489;stroke-linecap:butt;stroke-linejoin:miter;stroke-miterlimit:4;stroke-dasharray:none;stroke-opacity:1"/><path inkscape:export-ydpi="42.360142" inkscape:export-xdpi="42.360142" inkscape:export-filename="P:\IconTests\EventIcons.png" transform="matrix(0.79671,0,0,0.79671,-732.744,491.0467)" d="M 457.1 462.4 A 38.6 38.6 0 1 1 380 462.4 A 38.6 38.6 0 1 1 457.1 462.4 z" id="path2762" style="fill:none;fill-opacity:1;stroke:none;stroke-width:25.5;stroke-linejoin:miter;stroke-miterlimit:4;stroke-dasharray:none;stroke-dashoffset:0;stroke-opacity:1"/><path inkscape:export-ydpi="42.360142" inkscape:export-xdpi="42.360142" inkscape:export-filename="P:\IconTests\EventIcons.png" transform="matrix(0.929495,0,0,0.908249,-785.4786,452.7005)" d="M 448.6 415.2 A 68.6 71.4 0 1 1 311.4 415.2 A 68.6 71.4 0 1 1 448.6 415.2 z" id="path3649" style="fill:black;fill-opacity:1;stroke:none;stroke-width:25.5;stroke-linejoin:miter;stroke-miterlimit:4;stroke-dasharray:none;stroke-dashoffset:0;stroke-opacity:1"/><path inkscape:export-ydpi="42.360142" inkscape:export-xdpi="42.360142" inkscape:export-filename="P:\IconTests\EventIcons.png" id="path3652" d="M -670.9 857.5 C -541.4 704.9 -359.6 648.4 -266.5 825.5" style="fill:none;fill-rule:evenodd;stroke:black;stroke-width:21.10018349;stroke-linecap:butt;stroke-linejoin:miter;stroke-miterlimit:4;stroke-dasharray:none;stroke-opacity:1"/><path inkscape:export-ydpi="42.360142" inkscape:export-xdpi="42.360142" inkscape:export-filename="P:\IconTests\EventIcons.png" style="fill:#ccc;fill-opacity:1;stroke:none;stroke-width:25.5;stroke-linejoin:miter;stroke-miterlimit:4;stroke-dasharray:none;stroke-dashoffset:0;stroke-opacity:1" id="path3732" d="M 448.6 415.2 A 68.6 71.4 0 1 1 311.4 415.2 A 68.6 71.4 0 1 1 448.6 415.2 z" transform="matrix(0.745004,0,0,0.727975,-715.3717,527.5541)"/><path inkscape:export-ydpi="42.360142" inkscape:export-xdpi="42.360142" inkscape:export-filename="P:\IconTests\EventIcons.png" transform="matrix(0.329897,0,0,0.322356,-557.6311,695.9748)" d="M 448.6 415.2 A 68.6 71.4 0 1 1 311.4 415.2 A 68.6 71.4 0 1 1 448.6 415.2 z" id="path3734" style="fill:black;fill-opacity:1;stroke:none;stroke-width:25.5;stroke-linejoin:miter;stroke-miterlimit:4;stroke-dasharray:none;stroke-dashoffset:0;stroke-opacity:1"/><path inkscape:export-ydpi="42.360142" inkscape:export-xdpi="42.360142" inkscape:export-filename="P:\IconTests\EventIcons.png" id="path1874" d="M -612.1 865.1 C -525.6 774.1 -370.8 714.9 -295.7 871.9 C -368.5 917.5 -460.7 926.6 -523.3 891.3" style="fill:none;fill-rule:evenodd;stroke:black;stroke-width:18.41600037;stroke-linecap:butt;stroke-linejoin:miter;stroke-miterlimit:4;stroke-dasharray:none;stroke-opacity:1"/></g><path style="opacity:1;fill:none;fill-opacity:1;stroke:black;stroke-width:3.79999995;stroke-linejoin:round;stroke-miterlimit:4;stroke-dasharray:none;stroke-dashoffset:0;stroke-opacity:1" id="path3988" inkscape:flatsided="false" inkscape:rounded="0" inkscape:randomized="0" d="M1028.5 338.1 L1001.4 314.6 L1004.5 350.4 L988.4 318.3 L977.6 352.5 L975 316.7 L951.9 344.2 L963.2 310.1 L931.4 326.7 L954.9 299.5 L919.1 302.6 L951.2 286.5 L917 275.7 L952.8 273.1 L925.3 250.1 L959.4 261.4 L942.8 229.5 L970 253 L966.9 217.3 L982.9 249.3 L993.8 215.1 L996.3 250.9 L1019.4 223.4 L1008.1 257.5 L1040 240.9 L1016.5 268.1 L1052.2 265 L1020.2 281.1 L1054.4 291.9 L1018.6 294.5 L1046.1 317.6 L1012 306.2 L1028.5 338.1 z"/><path style="fill:none;fill-rule:evenodd;stroke:black;stroke-width:15.19999981;stroke-linecap:butt;stroke-linejoin:miter;stroke-miterlimit:4;stroke-dasharray:none;stroke-opacity:1" d="M 42.9 584.1 L 720 584.1" id="path3990"/></g></svg>