<?xml version="1.0" encoding="UTF-8" standalone="no"?>
<!-- Created with Inkscape (http://www.inkscape.org/) -->

<svg
   xmlns:dc="http://purl.org/dc/elements/1.1/"
   xmlns:cc="http://creativecommons.org/ns#"
   xmlns:rdf="http://www.w3.org/1999/02/22-rdf-syntax-ns#"
   xmlns:svg="http://www.w3.org/2000/svg"
   xmlns="http://www.w3.org/2000/svg"
   xmlns:sodipodi="http://sodipodi.sourceforge.net/DTD/sodipodi-0.dtd"
   xmlns:inkscape="http://www.inkscape.org/namespaces/inkscape"
   width="158.02158mm"
   height="21.420988mm"
   viewBox="0 0 158.02157 21.420989"
   version="1.1"
   id="svg8"
   sodipodi:docname="pipeline-rasterizacao-fases.svg"
   inkscape:version="0.92.3 (2405546, 2018-03-11)">
  <defs
     id="defs2" />
  <sodipodi:namedview
     id="base"
     pagecolor="#ffffff"
     bordercolor="#666666"
     borderopacity="1.0"
     inkscape:pageopacity="0.0"
     inkscape:pageshadow="2"
     inkscape:zoom="1.4"
     inkscape:cx="342.0439"
     inkscape:cy="140.57827"
     inkscape:document-units="mm"
     inkscape:current-layer="layer1"
     showgrid="false"
     inkscape:window-width="1842"
     inkscape:window-height="1018"
     inkscape:window-x="78"
     inkscape:window-y="34"
     inkscape:window-maximized="1" />
  <metadata
     id="metadata5">
    <rdf:RDF>
      <cc:Work
         rdf:about="">
        <dc:format>image/svg+xml</dc:format>
        <dc:type
           rdf:resource="http://purl.org/dc/dcmitype/StillImage" />
        <dc:title />
      </cc:Work>
    </rdf:RDF>
  </metadata>
  <g
     inkscape:groupmode="layer"
     id="layer2"
     inkscape:label="caixas"
     transform="translate(-1.0729189,-81.298843)"
     style="opacity:0.98999999">
    <rect
       style="opacity:0.98000004;fill:#b7d0ff;fill-opacity:1;stroke:#000000;stroke-width:0.5;stroke-miterlimit:4;stroke-dasharray:none;stroke-dashoffset:0;stroke-opacity:0.91366906"
       id="rect829"
       width="33.639881"
       height="20.92098"
       x="1.3229189"
       y="81.548851"
       class="etapa1" />
    <rect
       style="opacity:0.98000004;fill:#b7d0ff;fill-opacity:1;stroke:#000000;stroke-width:0.5;stroke-miterlimit:4;stroke-dasharray:none;stroke-dashoffset:0;stroke-opacity:0.91366906"
       id="rect829-8"
       width="33.639881"
       height="20.920982"
       x="42.616817"
       y="81.548843"
       class="etapa2" />
    <rect
       style="opacity:0.98000004;fill:#b7d0ff;fill-opacity:1;stroke:#000000;stroke-width:0.5;stroke-miterlimit:4;stroke-dasharray:none;stroke-dashoffset:0;stroke-opacity:0.91366906"
       id="rect829-2"
       width="33.639881"
       height="20.920982"
       x="83.910721"
       y="81.548843"
       class="etapa3" />
    <rect
       style="opacity:0.98000004;fill:#b7d0ff;fill-opacity:1;stroke:#000000;stroke-width:0.5;stroke-miterlimit:4;stroke-dasharray:none;stroke-dashoffset:0;stroke-opacity:0.91366906"
       id="rect829-9"
       width="33.639881"
       height="20.920982"
       x="125.20461"
       y="81.548843"
       class="etapa4" />
  </g>
  <g
     inkscape:groupmode="layer"
     id="layer1"
     inkscape:label="textos"
     transform="translate(0,-0.44452638)">
    <g
       aria-label="Configuração de Triângulos"
       transform="matrix(0.26458333,0,0,0.26458333,-0.56696429,3.96875)"
       style="font-style:normal;font-variant:normal;font-weight:normal;font-stretch:normal;font-size:18.66666603px;line-height:1.25;font-family:serif;-inkscape-font-specification:serif;letter-spacing:0px;word-spacing:0px;fill:#000000;fill-opacity:1;stroke:none"
       id="flowRoot907">
      <path
         id="path1111"
         style="font-style:normal;font-variant:normal;font-weight:normal;font-stretch:normal;font-size:16px;font-family:roboto;-inkscape-font-specification:roboto;text-align:center;text-anchor:middle"
         d="m 116.46191,33.981769 v 1.359375 q -0.60937,-0.3125 -1.26562,-0.46875 -0.65625,-0.15625 -1.35938,-0.15625 -1.07031,0 -1.60937,0.328125 -0.53125,0.328125 -0.53125,0.984375 0,0.5 0.38281,0.789062 0.38281,0.28125 1.53906,0.539063 l 0.49219,0.109375 q 1.53125,0.328125 2.17188,0.929687 0.64843,0.59375 0.64843,1.664063 0,1.21875 -0.96875,1.929687 -0.96093,0.710938 -2.64843,0.710938 -0.70313,0 -1.46875,-0.140625 -0.75782,-0.132813 -1.60157,-0.40625 v -1.484375 q 0.79688,0.414062 1.57032,0.625 0.77343,0.203125 1.53125,0.203125 1.01562,0 1.5625,-0.34375 0.54687,-0.351563 0.54687,-0.984375 0,-0.585938 -0.39844,-0.898438 -0.39062,-0.3125 -1.72656,-0.601562 l -0.5,-0.117188 q -1.33594,-0.28125 -1.92969,-0.859375 -0.59375,-0.585937 -0.59375,-1.601562 0,-1.234375 0.875,-1.90625 0.875,-0.671875 2.48438,-0.671875 0.79687,0 1.5,0.117187 0.70312,0.117188 1.29687,0.351563 z m -11.96875,0.75 q -1.15625,0 -1.82812,0.90625 -0.67188,0.898437 -0.67188,2.46875 0,1.570312 0.66407,2.476562 0.67187,0.898438 1.83593,0.898438 1.14844,0 1.82032,-0.90625 0.67187,-0.90625 0.67187,-2.46875 0,-1.554688 -0.67187,-2.460938 -0.67188,-0.914062 -1.82032,-0.914062 z m 0,-1.21875 q 1.875,0 2.94532,1.21875 1.07031,1.21875 1.07031,3.375 0,2.148437 -1.07031,3.375 -1.07032,1.21875 -2.94532,1.21875 -1.88281,0 -2.95312,-1.21875 -1.0625,-1.226563 -1.0625,-3.375 0,-2.15625 1.0625,-3.375 1.07031,-1.21875 2.95312,-1.21875 z m -7.828121,-3.195313 h 1.4375 v 12.15625 h -1.4375 z m -10.304687,8.703125 v -5.296875 h 1.4375 v 5.242188 q 0,1.242187 0.484375,1.867187 0.484375,0.617188 1.453125,0.617188 1.164062,0 1.835937,-0.742188 0.679688,-0.742187 0.679688,-2.023437 v -4.960938 h 1.4375 v 8.75 h -1.4375 v -1.34375 q -0.523438,0.796875 -1.21875,1.1875 -0.6875,0.382813 -1.601563,0.382813 -1.507812,0 -2.289062,-0.9375 -0.78125,-0.9375 -0.78125,-2.742188 z m 3.617187,-5.507812 z m -7.867187,4.484375 q 0,-1.5625 -0.648438,-2.421875 -0.640625,-0.859375 -1.804687,-0.859375 -1.15625,0 -1.804688,0.859375 -0.640625,0.859375 -0.640625,2.421875 0,1.554687 0.640625,2.414062 0.648438,0.859375 1.804688,0.859375 1.164062,0 1.804687,-0.859375 0.648438,-0.859375 0.648438,-2.414062 z m 1.4375,3.390625 q 0,2.234375 -0.992188,3.320312 -0.992187,1.09375 -3.039062,1.09375 -0.757813,0 -1.429688,-0.117187 -0.671875,-0.109375 -1.304687,-0.34375 v -1.398438 q 0.632812,0.34375 1.25,0.507813 0.617187,0.164062 1.257812,0.164062 1.414063,0 2.117188,-0.742187 0.703125,-0.734375 0.703125,-2.226563 v -0.710937 q -0.445313,0.773437 -1.140625,1.15625 -0.695313,0.382812 -1.664063,0.382812 -1.609375,0 -2.59375,-1.226562 -0.984375,-1.226563 -0.984375,-3.25 0,-2.03125 0.984375,-3.257813 0.984375,-1.226562 2.59375,-1.226562 0.96875,0 1.664063,0.382812 0.695312,0.382813 1.140625,1.15625 v -1.328125 h 1.4375 z M 73.469727,37.192706 v 5.28125 h -1.4375 v -5.234375 q 0,-1.242187 -0.484375,-1.859375 -0.484375,-0.617187 -1.453125,-0.617187 -1.164063,0 -1.835938,0.742187 -0.671875,0.742188 -0.671875,2.023438 v 4.945312 h -1.445312 v -8.75 h 1.445312 v 1.359375 q 0.515625,-0.789062 1.210938,-1.179687 0.703125,-0.390625 1.617187,-0.390625 1.507813,0 2.28125,0.9375 0.773438,0.929687 0.773438,2.742187 z m -13.109375,0.882813 q -1.742188,0 -2.414063,0.398437 -0.671875,0.398438 -0.671875,1.359375 0,0.765625 0.5,1.21875 0.507813,0.445313 1.375,0.445313 1.195313,0 1.914063,-0.84375 0.726562,-0.851563 0.726562,-2.257813 v -0.320312 z m 2.867187,-0.59375 v 4.992187 h -1.4375 v -1.328125 q -0.492187,0.796875 -1.226562,1.179688 -0.734375,0.375 -1.796875,0.375 -1.34375,0 -2.140625,-0.75 -0.789063,-0.757813 -0.789063,-2.023438 0,-1.476562 0.984375,-2.226562 0.992188,-0.75 2.953125,-0.75 h 2.015625 v -0.140625 q 0,-0.992188 -0.65625,-1.53125 -0.648437,-0.546875 -1.828125,-0.546875 -0.75,0 -1.460937,0.179687 -0.710938,0.179688 -1.367188,0.539063 v -1.328125 q 0.789063,-0.304688 1.53125,-0.453125 0.742188,-0.15625 1.445313,-0.15625 1.898437,0 2.835937,0.984375 0.9375,0.984375 0.9375,2.984375 z m -4.289062,-7.804688 h 1.15625 l 1.914062,2.9375 h -1.085937 l -1.40625,-1.914062 -1.40625,1.914062 h -1.085938 z m -6.992188,4.046875 h 1.4375 v 8.75 h -1.4375 z m 0,-3.40625 h 1.4375 v 1.820313 h -1.4375 z m -1.523437,4.75 q -0.242188,-0.140625 -0.53125,-0.203125 -0.28125,-0.07031 -0.625,-0.07031 -1.21875,0 -1.875,0.796875 -0.648438,0.789062 -0.648438,2.273437 v 4.609375 h -1.445312 v -8.75 h 1.445312 v 1.359375 q 0.453125,-0.796875 1.179688,-1.179687 0.726562,-0.390625 1.765625,-0.390625 0.148437,0 0.328125,0.02344 0.179687,0.01563 0.398437,0.05469 z m -14.0625,-4.257812 h 9.867187 v 1.328125 H 42.086914 V 42.473956 H 40.500977 V 32.138019 h -4.140625 z m -5.898438,6.929687 v 0.703125 h -6.609375 q 0.09375,1.484375 0.890625,2.265625 0.804688,0.773438 2.234375,0.773438 0.828125,0 1.601563,-0.203125 0.78125,-0.203125 1.546875,-0.609375 v 1.359375 q -0.773438,0.328125 -1.585938,0.5 -0.8125,0.171875 -1.648437,0.171875 -2.09375,0 -3.320313,-1.21875 -1.21875,-1.21875 -1.21875,-3.296875 0,-2.148438 1.15625,-3.40625 1.164063,-1.265625 3.132813,-1.265625 1.765625,0 2.789062,1.140625 1.03125,1.132812 1.03125,3.085937 z m -1.4375,-0.421875 q -0.01563,-1.179687 -0.664062,-1.882812 -0.640625,-0.703125 -1.703125,-0.703125 -1.203125,0 -1.929688,0.679687 -0.71875,0.679688 -0.828125,1.914063 z M 18.579102,35.052081 v -4.734375 h 1.4375 v 12.15625 h -1.4375 v -1.3125 q -0.453125,0.78125 -1.148438,1.164063 -0.6875,0.375 -1.65625,0.375 -1.585937,0 -2.585937,-1.265625 -0.992188,-1.265625 -0.992188,-3.328125 0,-2.0625 0.992188,-3.328125 1,-1.265625 2.585937,-1.265625 0.96875,0 1.65625,0.382812 0.695313,0.375 1.148438,1.15625 z m -4.898438,3.054688 q 0,1.585937 0.648438,2.492187 0.65625,0.898438 1.796875,0.898438 1.140625,0 1.796875,-0.898438 0.65625,-0.90625 0.65625,-2.492187 0,-1.585938 -0.65625,-2.484375 -0.65625,-0.90625 -1.796875,-0.90625 -1.140625,0 -1.796875,0.90625 -0.648438,0.898437 -0.648438,2.484375 z M 112.80566,11.398437 q -1.15625,0 -1.82812,0.90625 -0.67188,0.898437 -0.67188,2.46875 0,1.570312 0.66407,2.476562 0.67187,0.898438 1.83593,0.898438 1.14844,0 1.82032,-0.90625 0.67187,-0.90625 0.67187,-2.46875 0,-1.554688 -0.67187,-2.460938 -0.67188,-0.914062 -1.82032,-0.914062 z m 0,-1.21875 q 1.875,0 2.94532,1.21875 1.07031,1.21875 1.07031,3.375 0,2.148437 -1.07031,3.375 -1.07032,1.21875 -2.94532,1.21875 -1.88281,0 -2.95312,-1.21875 -1.0625,-1.226563 -1.0625,-3.375 0,-2.15625 1.0625,-3.375 1.07031,-1.21875 2.95312,-1.21875 z m -9.22656,4.5625 q -1.74219,0 -2.41406,0.398437 -0.67188,0.398438 -0.67188,1.359375 0,0.765625 0.5,1.21875 0.50782,0.445313 1.375,0.445313 1.19532,0 1.91407,-0.84375 0.72656,-0.851563 0.72656,-2.257813 v -0.320312 z m 2.86719,-0.59375 v 4.992187 h -1.4375 v -1.328125 q -0.49219,0.796875 -1.22656,1.179688 -0.73438,0.375 -1.79688,0.375 -1.34375,0 -2.140623,-0.75 -0.789063,-0.757813 -0.789063,-2.023438 0,-1.476562 0.984376,-2.226562 0.99219,-0.75 2.95312,-0.75 h 2.01563 v -0.140625 q 0,-0.992188 -0.65625,-1.53125 -0.64844,-0.546875 -1.82813,-0.546875 -0.75,0 -1.46093,0.179687 -0.71094,0.179688 -1.367191,0.539063 v -1.328125 q 0.789061,-0.304688 1.531251,-0.453125 0.74219,-0.15625 1.44531,-0.15625 1.89844,0 2.83594,0.984375 0.9375,0.984375 0.9375,2.984375 z M 102.7041,8.4374994 102.25879,8.0078119 q -0.17188,-0.15625 -0.30469,-0.2265625 -0.125,-0.078125 -0.22656,-0.078125 -0.29688,0 -0.4375,0.2890625 -0.14063,0.28125 -0.15625,0.921875 h -0.97656 q 0.0156,-1.0546875 0.41406,-1.625 0.39844,-0.578125 1.10937,-0.578125 0.29688,0 0.54688,0.109375 0.25,0.109375 0.53906,0.3671875 l 0.44531,0.4296875 q 0.17188,0.15625 0.29688,0.234375 0.13281,0.070312 0.23437,0.070312 0.29688,0 0.4375,-0.28125 0.14063,-0.2890625 0.15625,-0.9296875 h 0.97657 q -0.0156,1.0546875 -0.41407,1.6328125 -0.39843,0.5703125 -1.10937,0.5703125 -0.29688,0 -0.54688,-0.109375 -0.25,-0.109375 -0.53906,-0.367187 z m -5.617186,2.2890626 v 1.34375 q -0.609375,-0.335938 -1.226562,-0.5 -0.609375,-0.171875 -1.234375,-0.171875 -1.398438,0 -2.171875,0.890625 -0.773438,0.882812 -0.773438,2.484375 0,1.601562 0.773438,2.492187 0.773437,0.882813 2.171875,0.882813 0.625,0 1.234375,-0.164063 0.617187,-0.171875 1.226562,-0.507812 v 1.328125 q -0.601562,0.28125 -1.25,0.421875 -0.640625,0.140625 -1.367187,0.140625 -1.976563,0 -3.140625,-1.242188 -1.164063,-1.242187 -1.164063,-3.351562 0,-2.140625 1.171875,-3.367188 1.179688,-1.226562 3.226563,-1.226562 0.664062,0 1.296875,0.140625 0.632812,0.132812 1.226562,0.40625 z m -2.03125,8.414062 q 0.429688,0.484375 0.640625,0.890625 0.210938,0.414063 0.210938,0.789063 0,0.695312 -0.46875,1.046875 -0.46875,0.359375 -1.390625,0.359375 -0.359375,0 -0.703125,-0.04687 -0.335938,-0.04687 -0.671875,-0.140625 v -1.023438 q 0.265625,0.132813 0.554687,0.1875 0.289063,0.0625 0.65625,0.0625 0.460938,0 0.695313,-0.1875 0.234375,-0.1875 0.234375,-0.546875 0,-0.234375 -0.171875,-0.578125 -0.164063,-0.335937 -0.515625,-0.8125 z M 84.954102,14.742187 q -1.742188,0 -2.414063,0.398437 -0.671875,0.398438 -0.671875,1.359375 0,0.765625 0.5,1.21875 0.507813,0.445313 1.375,0.445313 1.195313,0 1.914063,-0.84375 0.726562,-0.851563 0.726562,-2.257813 v -0.320312 z m 2.867187,-0.59375 v 4.992187 h -1.4375 v -1.328125 q -0.492187,0.796875 -1.226562,1.179688 -0.734375,0.375 -1.796875,0.375 -1.34375,0 -2.140625,-0.75 -0.789063,-0.757813 -0.789063,-2.023438 0,-1.476562 0.984375,-2.226562 0.992188,-0.75 2.953125,-0.75 h 2.015625 v -0.140625 q 0,-0.992188 -0.65625,-1.53125 -0.648437,-0.546875 -1.828125,-0.546875 -0.75,0 -1.460937,0.179687 -0.710938,0.179688 -1.367188,0.539063 v -1.328125 q 0.789063,-0.304688 1.53125,-0.453125 0.742188,-0.15625 1.445313,-0.15625 1.898437,0 2.835937,0.984375 0.9375,0.984375 0.9375,2.984375 z m -8.367187,-2.414063 q -0.242188,-0.140625 -0.53125,-0.203125 -0.28125,-0.07031 -0.625,-0.07031 -1.21875,0 -1.875,0.796875 -0.648438,0.789062 -0.648438,2.273437 v 4.609375 h -1.445312 v -8.75 h 1.445312 v 1.359375 q 0.453125,-0.796875 1.179688,-1.179687 0.726562,-0.390625 1.765625,-0.390625 0.148437,0 0.328125,0.02344 0.179687,0.01563 0.398437,0.05469 z m -15.375,3.953125 v -5.296875 h 1.4375 v 5.242188 q 0,1.242187 0.484375,1.867187 0.484375,0.617188 1.453125,0.617188 1.164062,0 1.835937,-0.742188 0.679688,-0.742187 0.679688,-2.023437 v -4.960938 h 1.4375 v 8.75 h -1.4375 v -1.34375 q -0.523438,0.796875 -1.21875,1.1875 -0.6875,0.382813 -1.601563,0.382813 -1.507812,0 -2.289062,-0.9375 -0.78125,-0.9375 -0.78125,-2.742188 z m 3.617187,-5.507812 z m -7.867187,4.484375 q 0,-1.5625 -0.648438,-2.421875 -0.640625,-0.859375 -1.804687,-0.859375 -1.15625,0 -1.804688,0.859375 -0.640625,0.859375 -0.640625,2.421875 0,1.554687 0.640625,2.414062 0.648438,0.859375 1.804688,0.859375 1.164062,0 1.804687,-0.859375 0.648438,-0.859375 0.648438,-2.414062 z m 1.4375,3.390625 q 0,2.234375 -0.992188,3.320312 -0.992187,1.09375 -3.039062,1.09375 -0.757813,0 -1.429688,-0.117187 -0.671875,-0.109375 -1.304687,-0.34375 v -1.398438 q 0.632812,0.34375 1.25,0.507813 0.617187,0.164062 1.257812,0.164062 1.414063,0 2.117188,-0.742187 0.703125,-0.734375 0.703125,-2.226563 v -0.710937 q -0.445313,0.773437 -1.140625,1.15625 -0.695313,0.382812 -1.664063,0.382812 -1.609375,0 -2.59375,-1.226562 -0.984375,-1.226563 -0.984375,-3.25 0,-2.03125 0.984375,-3.257813 0.984375,-1.226562 2.59375,-1.226562 0.96875,0 1.664063,0.382812 0.695312,0.382813 1.140625,1.15625 v -1.328125 h 1.4375 z m -10.21875,-7.664063 v 8.75 h -1.445313 v -7.632812 h -3.945312 v 7.632812 h -1.445313 v -7.632812 h -1.375 v -1.117188 h 1.375 V 9.7812494 q 0,-1.4296875 0.671875,-2.109375 0.679688,-0.6875 2.078125,-0.6875 h 1.445313 v 1.1953125 h -1.375 q -0.773438,0 -1.078125,0.3125 -0.296875,0.3125 -0.296875,1.125 V 10.390624 Z M 49.602539,6.9999994 h 1.445313 v 1.8203125 h -1.445313 z m -8.507812,6.8593746 v 5.28125 h -1.4375 v -5.234375 q 0,-1.242187 -0.484375,-1.859375 -0.484375,-0.617187 -1.453125,-0.617187 -1.164063,0 -1.835938,0.742187 -0.671875,0.742188 -0.671875,2.023438 v 4.945312 h -1.445312 v -8.75 h 1.445312 v 1.359375 q 0.515625,-0.789062 1.210938,-1.179687 0.703125,-0.390625 1.617187,-0.390625 1.507813,0 2.28125,0.9375 0.773438,0.929687 0.773438,2.742187 z M 27.430664,11.398437 q -1.15625,0 -1.828125,0.90625 -0.671875,0.898437 -0.671875,2.46875 0,1.570312 0.664063,2.476562 0.671875,0.898438 1.835937,0.898438 1.148438,0 1.820313,-0.90625 0.671875,-0.90625 0.671875,-2.46875 0,-1.554688 -0.671875,-2.460938 -0.671875,-0.914062 -1.820313,-0.914062 z m 0,-1.21875 q 1.875,0 2.945313,1.21875 1.070312,1.21875 1.070312,3.375 0,2.148437 -1.070312,3.375 -1.070313,1.21875 -2.945313,1.21875 -1.882812,0 -2.953125,-1.21875 -1.0625,-1.226563 -1.0625,-3.375 0,-2.15625 1.0625,-3.375 1.070313,-1.21875 2.953125,-1.21875 z M 21.649414,8.3749994 V 10.039062 Q 20.852539,9.2968744 19.946289,8.9296869 19.047852,8.5624994 18.032227,8.5624994 q -2,0 -3.0625,1.2265625 -1.0625,1.2187501 -1.0625,3.5312501 0,2.304687 1.0625,3.53125 1.0625,1.21875 3.0625,1.21875 1.015625,0 1.914062,-0.367188 0.90625,-0.367187 1.703125,-1.109375 v 1.648438 q -0.828125,0.5625 -1.757812,0.84375 -0.921875,0.28125 -1.953125,0.28125 -2.648438,0 -4.171875,-1.617188 -1.523438,-1.625 -1.523438,-4.429687 0,-2.8125 1.523438,-4.4296876 1.523437,-1.625 4.171875,-1.625 1.046875,0 1.96875,0.28125 0.929687,0.2734375 1.742187,0.828125 z"
         inkscape:connector-curvature="0" />
    </g>
    <g
       aria-label="Scan
Conversion"
       transform="matrix(0.26458333,0,0,0.26458333,-0.94494048,-1.7008929)"
       style="font-style:normal;font-variant:normal;font-weight:normal;font-stretch:normal;font-size:18.66666603px;line-height:1.25;font-family:serif;-inkscape-font-specification:serif;letter-spacing:0px;word-spacing:0px;fill:#000000;fill-opacity:1;stroke:none"
       id="flowRoot915">
      <path
         id="path1063"
         style="font-style:italic;font-variant:normal;font-weight:normal;font-stretch:normal;font-size:16px;font-family:Roboto;-inkscape-font-specification:'Roboto Italic';text-align:center;text-anchor:middle"
         d="m 270.47754,58.53255 -1.02344,5.28125 h -1.44531 l 1.02344,-5.226562 q 0.0703,-0.367188 0.10937,-0.648438 0.0391,-0.28125 0.0391,-0.445312 0,-0.65625 -0.41406,-1.023438 -0.41406,-0.367187 -1.15625,-0.367187 -1.15625,0 -1.99219,0.773437 -0.83593,0.765625 -1.09375,2.085938 l -0.96093,4.851562 h -1.4375 l 1.69531,-8.75 h 1.4375 l -0.28906,1.375 q 0.60156,-0.757812 1.44531,-1.171875 0.84375,-0.414062 1.77344,-0.414062 1.15625,0 1.78906,0.625 0.64062,0.625 0.64062,1.757812 0,0.28125 -0.0391,0.601563 -0.0312,0.320312 -0.10156,0.695312 z m -14.63281,5.507813 q -1.53907,0 -2.4375,-0.945313 -0.89063,-0.953125 -0.89063,-2.59375 0,-0.953125 0.30469,-1.9375 0.3125,-0.992187 0.80469,-1.664062 0.77343,-1.046875 1.72656,-1.546875 0.95312,-0.5 2.15625,-0.5 1.49219,0 2.40625,0.929687 0.92187,0.929688 0.92187,2.429688 0,1.039062 -0.30468,2.070312 -0.30469,1.03125 -0.79688,1.710938 -0.76562,1.046875 -1.71875,1.546875 -0.95312,0.5 -2.17187,0.5 z m -1.83594,-3.585938 q 0,1.1875 0.49219,1.78125 0.5,0.585938 1.50781,0.585938 1.44531,0 2.39062,-1.257813 0.95313,-1.265625 0.95313,-3.203125 0,-1.132812 -0.50781,-1.710937 -0.50782,-0.578125 -1.49219,-0.578125 -0.8125,0 -1.44531,0.382812 -0.63282,0.375 -1.13282,1.148438 -0.36718,0.578125 -0.57031,1.320312 -0.19531,0.742188 -0.19531,1.53125 z m -3.73438,-8.796875 h 1.4375 l -0.35156,1.820313 h -1.4375 z m -0.65625,3.40625 h 1.4375 l -1.71093,8.75 h -1.4375 z m -2.61718,0.257813 -0.27344,1.359375 q -0.57031,-0.3125 -1.20313,-0.46875 -0.63281,-0.15625 -1.30468,-0.15625 -1.13282,0 -1.78907,0.390625 -0.64843,0.382812 -0.64843,1.046875 0,0.773437 1.51562,1.1875 0.11719,0.03125 0.17188,0.04687 l 0.46093,0.140625 q 1.4375,0.398437 1.91407,0.835937 0.48437,0.4375 0.48437,1.195313 0,1.390625 -1.10937,2.265625 -1.10157,0.875 -2.89063,0.875 -0.69531,0 -1.46094,-0.132813 -0.76562,-0.132812 -1.6875,-0.414062 l 0.28125,-1.484375 q 0.78907,0.40625 1.55469,0.617187 0.76563,0.210938 1.46875,0.210938 1.05469,0 1.71094,-0.453125 0.66406,-0.453125 0.66406,-1.148438 0,-0.75 -1.73437,-1.210937 l -0.14844,-0.03906 -0.49219,-0.125 q -1.09375,-0.289062 -1.60156,-0.757812 -0.50781,-0.476563 -0.50781,-1.210938 0,-1.398437 1.04687,-2.21875 1.05469,-0.820312 2.85938,-0.820312 0.71093,0 1.38281,0.117187 0.67969,0.117188 1.33594,0.351563 z m -7.46094,1.070312 q -0.21875,-0.117187 -0.5,-0.179687 -0.28125,-0.0625 -0.60156,-0.0625 -1.14844,0 -2.00782,0.875 -0.85937,0.867187 -1.14062,2.328125 l -0.88281,4.460937 h -1.4375 l 1.71093,-8.75 h 1.4375 l -0.27343,1.359375 q 0.57031,-0.757812 1.35937,-1.164062 0.79688,-0.40625 1.69531,-0.40625 0.23438,0 0.46094,0.03125 0.22656,0.02344 0.45313,0.08594 z m -9.28125,2.265625 q 0.0234,-0.125 0.0312,-0.257812 0.0156,-0.132813 0.0156,-0.265625 0,-0.953125 -0.5625,-1.507813 -0.55468,-0.554687 -1.51562,-0.554687 -1.07031,0 -1.89063,0.679687 -0.82031,0.671875 -1.24218,1.914063 z m 1.25,1.125 h -6.6875 q -0.0469,0.296875 -0.0625,0.46875 -0.0156,0.171875 -0.0156,0.296875 0,1.085938 0.66407,1.679688 0.67187,0.59375 1.89062,0.59375 0.9375,0 1.77344,-0.210938 0.83594,-0.210937 1.55469,-0.617187 l -0.27344,1.421875 q -0.77344,0.3125 -1.60156,0.46875 -0.82032,0.15625 -1.67188,0.15625 -1.82031,0 -2.80469,-0.867188 -0.97656,-0.875 -0.97656,-2.476562 0,-1.367188 0.48438,-2.539063 0.49218,-1.179687 1.4375,-2.101562 0.60937,-0.578125 1.44531,-0.890625 0.84375,-0.3125 1.78906,-0.3125 1.48438,0 2.35938,0.890625 0.88281,0.890625 0.88281,2.390625 0,0.359375 -0.0469,0.773437 -0.0469,0.40625 -0.14062,0.875 z M 214.24316,55.0638 h 1.52344 l 1.28125,7.4375 4.1875,-7.4375 h 1.52344 l -4.97656,8.75 h -1.9375 z m -2.39062,3.46875 -1.02344,5.28125 h -1.44531 l 1.02344,-5.226562 q 0.0703,-0.367188 0.10937,-0.648438 0.0391,-0.28125 0.0391,-0.445312 0,-0.65625 -0.41406,-1.023438 -0.41406,-0.367187 -1.15625,-0.367187 -1.15625,0 -1.99219,0.773437 -0.83593,0.765625 -1.09375,2.085938 l -0.96093,4.851562 h -1.4375 l 1.69531,-8.75 h 1.4375 l -0.28906,1.375 q 0.60156,-0.757812 1.44531,-1.171875 0.84375,-0.414062 1.77344,-0.414062 1.15625,0 1.78906,0.625 0.64062,0.625 0.64062,1.757812 0,0.28125 -0.0391,0.601563 -0.0312,0.320312 -0.10156,0.695312 z m -14.63281,5.507813 q -1.53907,0 -2.4375,-0.945313 -0.89063,-0.953125 -0.89063,-2.59375 0,-0.953125 0.30469,-1.9375 0.3125,-0.992187 0.80469,-1.664062 0.77343,-1.046875 1.72656,-1.546875 0.95312,-0.5 2.15625,-0.5 1.49219,0 2.40625,0.929687 0.92187,0.929688 0.92187,2.429688 0,1.039062 -0.30468,2.070312 -0.30469,1.03125 -0.79688,1.710938 -0.76562,1.046875 -1.71875,1.546875 -0.95312,0.5 -2.17187,0.5 z m -1.83594,-3.585938 q 0,1.1875 0.49219,1.78125 0.5,0.585938 1.50781,0.585938 1.44531,0 2.39062,-1.257813 0.95313,-1.265625 0.95313,-3.203125 0,-1.132812 -0.50781,-1.710937 -0.50782,-0.578125 -1.49219,-0.578125 -0.8125,0 -1.44531,0.382812 -0.63282,0.375 -1.13282,1.148438 -0.36718,0.578125 -0.57031,1.320312 -0.19531,0.742188 -0.19531,1.53125 z m -2.29688,-7.40625 -0.32031,1.664063 q -0.75,-0.757813 -1.59375,-1.125 -0.83594,-0.367188 -1.8125,-0.367188 -1.33594,0 -2.35156,0.640625 -1.00781,0.640625 -1.74219,1.953125 -0.46875,0.84375 -0.71875,1.789063 -0.24219,0.9375 -0.24219,1.890625 0,1.59375 0.82032,2.429687 0.82812,0.835938 2.39843,0.835938 1.08594,0 2.08594,-0.34375 1,-0.351563 1.94531,-1.046875 l -0.36718,1.867187 q -0.92969,0.398438 -1.88282,0.601563 -0.94531,0.203125 -1.89843,0.203125 -2.24219,0 -3.50782,-1.21875 -1.25781,-1.21875 -1.25781,-3.390625 0,-1.390625 0.47656,-2.734375 0.48438,-1.34375 1.38282,-2.453125 0.95312,-1.179688 2.17187,-1.742188 1.22656,-0.5625 2.85156,-0.5625 1,0 1.89063,0.28125 0.89844,0.273438 1.67187,0.828125 z m 51.98438,-17.848957 -1.02344,5.28125 h -1.44531 l 1.02344,-5.226562 q 0.0703,-0.367188 0.10937,-0.648438 0.0391,-0.28125 0.0391,-0.445312 0,-0.65625 -0.41406,-1.023438 -0.41406,-0.367187 -1.15625,-0.367187 -1.15625,0 -1.99219,0.773437 -0.83593,0.765625 -1.09375,2.085938 l -0.96093,4.851562 h -1.4375 l 1.69531,-8.75 h 1.4375 l -0.28906,1.375 q 0.60156,-0.757812 1.44531,-1.171875 0.84375,-0.414062 1.77344,-0.414062 1.15625,0 1.78906,0.625 0.64062,0.625 0.64062,1.757812 0,0.28125 -0.0391,0.601563 -0.0312,0.320312 -0.10156,0.695312 z m -10.13281,0.289063 -0.97657,4.992187 h -1.4375 l 0.26563,-1.328125 q -0.63281,0.78125 -1.44531,1.171875 -0.80469,0.382813 -1.79688,0.382813 -1.11719,0 -1.83594,-0.679688 -0.71093,-0.6875 -0.71093,-1.757812 0,-1.53125 1.21875,-2.421875 1.22656,-0.890625 3.375,-0.890625 h 2 l 0.0781,-0.382813 q 0.0156,-0.0625 0.0234,-0.132812 0.008,-0.07813 0.008,-0.234375 0,-0.695313 -0.57031,-1.078125 -0.5625,-0.390625 -1.58594,-0.390625 -0.70312,0 -1.44531,0.179687 -0.73438,0.179688 -1.51563,0.539063 l 0.25,-1.328125 q 0.8125,-0.304688 1.58594,-0.453125 0.78125,-0.15625 1.50781,-0.15625 1.54688,0 2.35157,0.671875 0.8125,0.671875 0.8125,1.953125 0,0.257812 -0.0391,0.609375 -0.0391,0.34375 -0.11718,0.734375 z m -1.55469,0.59375 h -1.4375 q -1.76563,0 -2.61719,0.476562 -0.84375,0.46875 -0.84375,1.460938 0,0.6875 0.42969,1.078125 0.4375,0.390625 1.20312,0.390625 1.17188,0 2.04688,-0.835938 0.875,-0.84375 1.15625,-2.25 z m -7.27344,-4.015625 -0.28906,1.421875 q -0.51563,-0.375 -1.10156,-0.5625 -0.57813,-0.1875 -1.20313,-0.1875 -0.6875,0 -1.3125,0.242187 -0.61719,0.242188 -1.03906,0.6875 -0.67188,0.679688 -1.03906,1.59375 -0.36719,0.914063 -0.36719,1.890625 0,1.179688 0.58594,1.757813 0.59375,0.578125 1.79687,0.578125 0.59375,0 1.25781,-0.179688 0.67188,-0.179687 1.39844,-0.539062 l -0.27344,1.421875 q -0.625,0.257812 -1.28906,0.382812 -0.65625,0.132813 -1.35156,0.132813 -1.74219,0 -2.67969,-0.867188 -0.9375,-0.875 -0.9375,-2.492187 0,-1.359375 0.48438,-2.5 0.49218,-1.148438 1.45312,-2.0625 0.65625,-0.625 1.53906,-0.945313 0.88282,-0.320312 1.92969,-0.320312 0.60938,0 1.21094,0.140625 0.60156,0.132812 1.22656,0.40625 z m -9.08594,-2.867188 -0.30468,1.539063 q -0.78907,-0.421875 -1.57032,-0.632813 -0.77343,-0.21875 -1.5,-0.21875 -1.41406,0 -2.25,0.617188 -0.83593,0.617187 -0.83593,1.640625 0,0.5625 0.30468,0.867187 0.3125,0.296875 1.59375,0.640625 l 0.94532,0.234375 q 1.60156,0.414063 2.22656,1.054688 0.625,0.632812 0.625,1.78125 0,1.765625 -1.39063,2.875 -1.38281,1.109375 -3.64843,1.109375 -0.92969,0 -1.86719,-0.1875 -0.9375,-0.179688 -1.88281,-0.554688 l 0.32031,-1.625 q 0.86719,0.539063 1.73437,0.8125 0.875,0.273438 1.74219,0.273438 1.47656,0 2.36719,-0.65625 0.89062,-0.65625 0.89062,-1.710938 0,-0.703125 -0.35937,-1.0625 -0.35156,-0.367187 -1.52344,-0.664062 l -0.94531,-0.242188 q -1.61719,-0.421875 -2.21094,-0.96875 -0.58594,-0.554687 -0.58594,-1.546875 0,-1.742187 1.33594,-2.851562 1.34375,-1.117188 3.49219,-1.117188 0.83594,0 1.65625,0.148438 0.82031,0.148437 1.64062,0.445312 z"
         inkscape:connector-curvature="0" />
    </g>
    <g
       aria-label="Sombreamento de Fragmentos"
       transform="matrix(0.26458333,0,0,0.26458333,0.94494048,4.5357143)"
       style="font-style:normal;font-variant:normal;font-weight:normal;font-stretch:normal;font-size:18.66666603px;line-height:1.25;font-family:serif;-inkscape-font-specification:serif;letter-spacing:0px;word-spacing:0px;fill:#000000;fill-opacity:1;stroke:none"
       id="flowRoot925">
      <path
         id="path1033"
         style="font-style:normal;font-variant:normal;font-weight:normal;font-stretch:normal;font-size:16px;font-family:Roboto;-inkscape-font-specification:Roboto"
         d="m 431.54883,33.981769 v 1.359375 q -0.60938,-0.3125 -1.26563,-0.46875 -0.65625,-0.15625 -1.35937,-0.15625 -1.07031,0 -1.60938,0.328125 -0.53125,0.328125 -0.53125,0.984375 0,0.5 0.38282,0.789062 0.38281,0.28125 1.53906,0.539063 l 0.49219,0.109375 q 1.53125,0.328125 2.17187,0.929687 0.64844,0.59375 0.64844,1.664063 0,1.21875 -0.96875,1.929687 -0.96094,0.710938 -2.64844,0.710938 -0.70312,0 -1.46875,-0.140625 -0.75781,-0.132813 -1.60156,-0.40625 v -1.484375 q 0.79687,0.414062 1.57031,0.625 0.77344,0.203125 1.53125,0.203125 1.01563,0 1.5625,-0.34375 0.54688,-0.351563 0.54688,-0.984375 0,-0.585938 -0.39844,-0.898438 -0.39063,-0.3125 -1.72656,-0.601562 l -0.5,-0.117188 q -1.33594,-0.28125 -1.92969,-0.859375 -0.59375,-0.585937 -0.59375,-1.601562 0,-1.234375 0.875,-1.90625 0.875,-0.671875 2.48437,-0.671875 0.79688,0 1.5,0.117187 0.70313,0.117188 1.29688,0.351563 z m -11.96875,0.75 q -1.15625,0 -1.82813,0.90625 -0.67187,0.898437 -0.67187,2.46875 0,1.570312 0.66406,2.476562 0.67188,0.898438 1.83594,0.898438 1.14844,0 1.82031,-0.90625 0.67188,-0.90625 0.67188,-2.46875 0,-1.554688 -0.67188,-2.460938 -0.67187,-0.914062 -1.82031,-0.914062 z m 0,-1.21875 q 1.875,0 2.94531,1.21875 1.07031,1.21875 1.07031,3.375 0,2.148437 -1.07031,3.375 -1.07031,1.21875 -2.94531,1.21875 -1.88281,0 -2.95313,-1.21875 -1.0625,-1.226563 -1.0625,-3.375 0,-2.15625 1.0625,-3.375 1.07032,-1.21875 2.95313,-1.21875 z m -8.25,-2.273438 v 2.484375 h 2.96094 v 1.117188 h -2.96094 v 4.75 q 0,1.070312 0.28906,1.375 0.29688,0.304687 1.19531,0.304687 h 1.47657 v 1.203125 h -1.47657 q -1.66406,0 -2.29687,-0.617187 -0.63281,-0.625 -0.63281,-2.265625 v -4.75 h -1.05469 v -1.117188 h 1.05469 v -2.484375 z m -4.30469,5.953125 v 5.28125 h -1.4375 v -5.234375 q 0,-1.242187 -0.48437,-1.859375 -0.48438,-0.617187 -1.45313,-0.617187 -1.16406,0 -1.83594,0.742187 -0.67187,0.742188 -0.67187,2.023438 v 4.945312 h -1.44531 v -8.75 h 1.44531 v 1.359375 q 0.51562,-0.789062 1.21094,-1.179687 0.70312,-0.390625 1.61718,-0.390625 1.50782,0 2.28125,0.9375 0.77344,0.929687 0.77344,2.742187 z m -9.63281,0.546875 v 0.703125 h -6.60938 q 0.0937,1.484375 0.89063,2.265625 0.80469,0.773438 2.23437,0.773438 0.82813,0 1.60157,-0.203125 0.78125,-0.203125 1.54687,-0.609375 v 1.359375 q -0.77344,0.328125 -1.58594,0.5 -0.8125,0.171875 -1.64843,0.171875 -2.09375,0 -3.32032,-1.21875 -1.21875,-1.21875 -1.21875,-3.296875 0,-2.148438 1.15625,-3.40625 1.16407,-1.265625 3.13282,-1.265625 1.76562,0 2.78906,1.140625 1.03125,1.132812 1.03125,3.085937 z m -1.4375,-0.421875 q -0.0156,-1.179687 -0.66406,-1.882812 -0.64063,-0.703125 -1.70313,-0.703125 -1.20312,0 -1.92969,0.679687 -0.71875,0.679688 -0.82812,1.914063 z m -14.82813,-1.914062 q 0.53907,-0.96875 1.28907,-1.429688 0.75,-0.460937 1.76562,-0.460937 1.36719,0 2.10938,0.960937 0.74218,0.953125 0.74218,2.71875 v 5.28125 h -1.44531 v -5.234375 q 0,-1.257812 -0.44531,-1.867187 -0.44531,-0.609375 -1.35938,-0.609375 -1.11718,0 -1.76562,0.742187 -0.64844,0.742188 -0.64844,2.023438 v 4.945312 h -1.44531 v -5.234375 q 0,-1.265625 -0.44531,-1.867187 -0.44532,-0.609375 -1.375,-0.609375 -1.10157,0 -1.75,0.75 -0.64844,0.742187 -0.64844,2.015625 v 4.945312 h -1.44531 v -8.75 h 1.44531 v 1.359375 q 0.49219,-0.804687 1.17969,-1.1875 0.6875,-0.382812 1.63281,-0.382812 0.95312,0 1.61719,0.484375 0.67187,0.484375 0.99218,1.40625 z m -11.21093,2.59375 q 0,-1.5625 -0.64844,-2.421875 -0.64063,-0.859375 -1.80469,-0.859375 -1.15625,0 -1.80469,0.859375 -0.64062,0.859375 -0.64062,2.421875 0,1.554687 0.64062,2.414062 0.64844,0.859375 1.80469,0.859375 1.16406,0 1.80469,-0.859375 0.64844,-0.859375 0.64844,-2.414062 z m 1.4375,3.390625 q 0,2.234375 -0.99219,3.320312 -0.99219,1.09375 -3.03906,1.09375 -0.75782,0 -1.42969,-0.117187 -0.67188,-0.109375 -1.30469,-0.34375 v -1.398438 q 0.63281,0.34375 1.25,0.507813 0.61719,0.164062 1.25781,0.164062 1.41407,0 2.11719,-0.742187 0.70313,-0.734375 0.70313,-2.226563 v -0.710937 q -0.44532,0.773437 -1.14063,1.15625 -0.69531,0.382812 -1.66406,0.382812 -1.60938,0 -2.59375,-1.226562 -0.98438,-1.226563 -0.98438,-3.25 0,-2.03125 0.98438,-3.257813 0.98437,-1.226562 2.59375,-1.226562 0.96875,0 1.66406,0.382812 0.69531,0.382813 1.14063,1.15625 v -1.328125 h 1.4375 z m -13.03125,-3.3125 q -1.74219,0 -2.41407,0.398437 -0.67187,0.398438 -0.67187,1.359375 0,0.765625 0.5,1.21875 0.50781,0.445313 1.375,0.445313 1.19531,0 1.91406,-0.84375 0.72656,-0.851563 0.72656,-2.257813 v -0.320312 z m 2.86718,-0.59375 v 4.992187 h -1.4375 v -1.328125 q -0.49218,0.796875 -1.22656,1.179688 -0.73437,0.375 -1.79687,0.375 -1.34375,0 -2.14063,-0.75 -0.78906,-0.757813 -0.78906,-2.023438 0,-1.476562 0.98437,-2.226562 0.99219,-0.75 2.95313,-0.75 h 2.01562 v -0.140625 q 0,-0.992188 -0.65625,-1.53125 -0.64843,-0.546875 -1.82812,-0.546875 -0.75,0 -1.46094,0.179687 -0.71094,0.179688 -1.36719,0.539063 v -1.328125 q 0.78907,-0.304688 1.53125,-0.453125 0.74219,-0.15625 1.44532,-0.15625 1.89843,0 2.83593,0.984375 0.9375,0.984375 0.9375,2.984375 z m -8.36718,-2.414063 q -0.24219,-0.140625 -0.53125,-0.203125 -0.28125,-0.07031 -0.625,-0.07031 -1.21875,0 -1.875,0.796875 -0.64844,0.789062 -0.64844,2.273437 v 4.609375 h -1.44531 v -8.75 h 1.44531 v 1.359375 q 0.45312,-0.796875 1.17969,-1.179687 0.72656,-0.390625 1.76562,-0.390625 0.14844,0 0.32813,0.02344 0.17968,0.01563 0.39843,0.05469 z m -13.07032,-4.257812 h 6.70313 v 1.328125 h -5.125 v 3.4375 h 4.625 v 1.328125 h -4.625 v 5.570312 h -1.57813 z m -7.51562,6.929687 v 0.703125 h -6.60938 q 0.0937,1.484375 0.89063,2.265625 0.80469,0.773438 2.23437,0.773438 0.82813,0 1.60157,-0.203125 0.78125,-0.203125 1.54687,-0.609375 v 1.359375 q -0.77344,0.328125 -1.58594,0.5 -0.8125,0.171875 -1.64843,0.171875 -2.09375,0 -3.32032,-1.21875 -1.21875,-1.21875 -1.21875,-3.296875 0,-2.148438 1.15625,-3.40625 1.16407,-1.265625 3.13282,-1.265625 1.76562,0 2.78906,1.140625 1.03125,1.132812 1.03125,3.085937 z m -1.4375,-0.421875 q -0.0156,-1.179687 -0.66406,-1.882812 -0.64063,-0.703125 -1.70313,-0.703125 -1.20312,0 -1.92969,0.679687 -0.71875,0.679688 -0.82812,1.914063 z m -10.44531,-2.265625 v -4.734375 h 1.4375 v 12.15625 h -1.4375 v -1.3125 q -0.45313,0.78125 -1.14844,1.164063 -0.6875,0.375 -1.65625,0.375 -1.58594,0 -2.58594,-1.265625 -0.99219,-1.265625 -0.99219,-3.328125 0,-2.0625 0.99219,-3.328125 1,-1.265625 2.58594,-1.265625 0.96875,0 1.65625,0.382812 0.69531,0.375 1.14844,1.15625 z m -4.89844,3.054688 q 0,1.585937 0.64844,2.492187 0.65625,0.898438 1.79687,0.898438 1.14063,0 1.79688,-0.898438 0.65625,-0.90625 0.65625,-2.492187 0,-1.585938 -0.65625,-2.484375 -0.65625,-0.90625 -1.79688,-0.90625 -1.14062,0 -1.79687,0.90625 -0.64844,0.898437 -0.64844,2.484375 z m 116,-26.708332 q -1.15625,0 -1.82813,0.90625 -0.67187,0.898437 -0.67187,2.46875 0,1.570312 0.66406,2.476562 0.67188,0.898438 1.83594,0.898438 1.14844,0 1.82031,-0.90625 0.67188,-0.90625 0.67188,-2.46875 0,-1.554688 -0.67188,-2.460938 -0.67187,-0.914062 -1.82031,-0.914062 z m 0,-1.21875 q 1.875,0 2.94531,1.21875 1.07031,1.21875 1.07031,3.375 0,2.148437 -1.07031,3.375 -1.07031,1.21875 -2.94531,1.21875 -1.88281,0 -2.95313,-1.21875 -1.0625,-1.226563 -1.0625,-3.375 0,-2.15625 1.0625,-3.375 1.07032,-1.21875 2.95313,-1.21875 z m -8.25,-2.2734376 v 2.4843746 h 2.96094 v 1.117188 h -2.96094 v 4.75 q 0,1.070312 0.28906,1.375 0.29688,0.304687 1.19531,0.304687 h 1.47657 v 1.203125 h -1.47657 q -1.66406,0 -2.29687,-0.617187 -0.63281,-0.625 -0.63281,-2.265625 v -4.75 h -1.05469 v -1.117188 h 1.05469 V 7.9062494 Z m -4.30469,5.9531246 v 5.28125 h -1.4375 v -5.234375 q 0,-1.242187 -0.48437,-1.859375 -0.48438,-0.617187 -1.45313,-0.617187 -1.16406,0 -1.83594,0.742187 -0.67187,0.742188 -0.67187,2.023438 v 4.945312 h -1.44531 v -8.75 h 1.44531 v 1.359375 q 0.51562,-0.789062 1.21094,-1.179687 0.70312,-0.390625 1.61718,-0.390625 1.50782,0 2.28125,0.9375 0.77344,0.929687 0.77344,2.742187 z m -9.63281,0.546875 v 0.703125 h -6.60938 q 0.0937,1.484375 0.89063,2.265625 0.80469,0.773438 2.23437,0.773438 0.82813,0 1.60157,-0.203125 0.78125,-0.203125 1.54687,-0.609375 v 1.359375 q -0.77344,0.328125 -1.58594,0.5 -0.8125,0.171875 -1.64843,0.171875 -2.09375,0 -3.32032,-1.21875 -1.21875,-1.21875 -1.21875,-3.296875 0,-2.148438 1.15625,-3.40625 1.16407,-1.265625 3.13282,-1.265625 1.76562,0 2.78906,1.140625 1.03125,1.132812 1.03125,3.085937 z m -1.4375,-0.421875 q -0.0156,-1.179687 -0.66406,-1.882812 -0.64063,-0.703125 -1.70313,-0.703125 -1.20312,0 -1.92969,0.679687 -0.71875,0.679688 -0.82812,1.914063 z m -14.82813,-1.914062 q 0.53907,-0.96875 1.28907,-1.429688 0.75,-0.460937 1.76562,-0.460937 1.36719,0 2.10938,0.960937 0.74218,0.953125 0.74218,2.71875 v 5.28125 h -1.44531 v -5.234375 q 0,-1.257812 -0.44531,-1.867187 -0.44531,-0.609375 -1.35938,-0.609375 -1.11718,0 -1.76562,0.742187 -0.64844,0.742188 -0.64844,2.023438 v 4.945312 h -1.44531 v -5.234375 q 0,-1.265625 -0.44531,-1.867187 -0.44532,-0.609375 -1.375,-0.609375 -1.10157,0 -1.75,0.75 -0.64844,0.742187 -0.64844,2.015625 v 4.945312 h -1.44531 v -8.75 h 1.44531 v 1.359375 q 0.49219,-0.804687 1.17969,-1.1875 0.6875,-0.382812 1.63281,-0.382812 0.95312,0 1.61719,0.484375 0.67187,0.484375 0.99218,1.40625 z m -12.64843,2.671875 q -1.74219,0 -2.41407,0.398437 -0.67187,0.398438 -0.67187,1.359375 0,0.765625 0.5,1.21875 0.50781,0.445313 1.375,0.445313 1.19531,0 1.91406,-0.84375 0.72656,-0.851563 0.72656,-2.257813 v -0.320312 z m 2.86718,-0.59375 v 4.992187 h -1.4375 v -1.328125 q -0.49218,0.796875 -1.22656,1.179688 -0.73437,0.375 -1.79687,0.375 -1.34375,0 -2.14063,-0.75 -0.78906,-0.757813 -0.78906,-2.023438 0,-1.476562 0.98437,-2.226562 0.99219,-0.75 2.95313,-0.75 h 2.01562 v -0.140625 q 0,-0.992188 -0.65625,-1.53125 -0.64843,-0.546875 -1.82812,-0.546875 -0.75,0 -1.46094,0.179687 -0.71094,0.179688 -1.36719,0.539063 v -1.328125 q 0.78907,-0.304688 1.53125,-0.453125 0.74219,-0.15625 1.44532,-0.15625 1.89843,0 2.83593,0.984375 0.9375,0.984375 0.9375,2.984375 z m -9.20312,0.257812 v 0.703125 h -6.60938 q 0.0937,1.484375 0.89063,2.265625 0.80469,0.773438 2.23437,0.773438 0.82813,0 1.60157,-0.203125 0.78125,-0.203125 1.54687,-0.609375 v 1.359375 q -0.77344,0.328125 -1.58594,0.5 -0.8125,0.171875 -1.64843,0.171875 -2.09375,0 -3.32032,-1.21875 -1.21875,-1.21875 -1.21875,-3.296875 0,-2.148438 1.15625,-3.40625 1.16407,-1.265625 3.13282,-1.265625 1.76562,0 2.78906,1.140625 1.03125,1.132812 1.03125,3.085937 z m -1.4375,-0.421875 q -0.0156,-1.179687 -0.66406,-1.882812 -0.64063,-0.703125 -1.70313,-0.703125 -1.20312,0 -1.92969,0.679687 -0.71875,0.679688 -0.82812,1.914063 z m -7.22656,-2.25 q -0.24219,-0.140625 -0.53125,-0.203125 -0.28125,-0.07031 -0.625,-0.07031 -1.21875,0 -1.875,0.796875 -0.64844,0.789062 -0.64844,2.273437 v 4.609375 h -1.44531 v -8.75 h 1.44531 v 1.359375 q 0.45312,-0.796875 1.17969,-1.179687 0.72656,-0.390625 1.76562,-0.390625 0.14844,0 0.32813,0.02344 0.17968,0.01563 0.39843,0.05469 z m -8.94532,3.039063 q 0,-1.585938 -0.65625,-2.484375 -0.64843,-0.90625 -1.78906,-0.90625 -1.14062,0 -1.79687,0.90625 -0.64844,0.898437 -0.64844,2.484375 0,1.585937 0.64844,2.492187 0.65625,0.898438 1.79687,0.898438 1.14063,0 1.78906,-0.898438 0.65625,-0.90625 0.65625,-2.492187 z m -4.89062,-3.054688 q 0.45312,-0.78125 1.14062,-1.15625 0.69532,-0.382812 1.65625,-0.382812 1.59375,0 2.58594,1.265625 1,1.265625 1,3.328125 0,2.0625 -1,3.328125 -0.99219,1.265625 -2.58594,1.265625 -0.96093,0 -1.65625,-0.375 -0.6875,-0.382813 -1.14062,-1.164063 v 1.3125 h -1.44531 V 6.9843744 h 1.44531 z m -10.17188,0.351563 q 0.53907,-0.96875 1.28907,-1.429688 0.75,-0.460937 1.76562,-0.460937 1.36719,0 2.10938,0.960937 0.74218,0.953125 0.74218,2.71875 v 5.28125 h -1.44531 v -5.234375 q 0,-1.257812 -0.44531,-1.867187 -0.44531,-0.609375 -1.35938,-0.609375 -1.11718,0 -1.76562,0.742187 -0.64844,0.742188 -0.64844,2.023438 v 4.945312 h -1.44531 v -5.234375 q 0,-1.265625 -0.44531,-1.867187 -0.44532,-0.609375 -1.375,-0.609375 -1.10157,0 -1.75,0.75 -0.64844,0.742187 -0.64844,2.015625 v 4.945312 h -1.44531 v -8.75 h 1.44531 v 1.359375 q 0.49219,-0.804687 1.17969,-1.1875 0.6875,-0.382812 1.63281,-0.382812 0.95312,0 1.61719,0.484375 0.67187,0.484375 0.99218,1.40625 z m -13.20312,-0.671875 q -1.15625,0 -1.82813,0.90625 -0.67187,0.898437 -0.67187,2.46875 0,1.570312 0.66406,2.476562 0.67188,0.898438 1.83594,0.898438 1.14844,0 1.82031,-0.90625 0.67188,-0.90625 0.67188,-2.46875 0,-1.554688 -0.67188,-2.460938 -0.67187,-0.914062 -1.82031,-0.914062 z m 0,-1.21875 q 1.875,0 2.94531,1.21875 1.07031,1.21875 1.07031,3.375 0,2.148437 -1.07031,3.375 -1.07031,1.21875 -2.94531,1.21875 -1.88281,0 -2.95313,-1.21875 -1.0625,-1.226563 -1.0625,-3.375 0,-2.15625 1.0625,-3.375 1.07032,-1.21875 2.95313,-1.21875 z m -6.49219,-2.3203126 v 1.5390625 q -0.89844,-0.4296875 -1.69531,-0.640625 -0.79688,-0.2109375 -1.53906,-0.2109375 -1.28907,0 -1.99219,0.5 -0.69531,0.5 -0.69531,1.4218746 0,0.773438 0.46093,1.171875 0.46875,0.390625 1.76563,0.632813 l 0.95312,0.195312 q 1.76563,0.335938 2.60157,1.1875 0.84375,0.84375 0.84375,2.265625 0,1.695313 -1.14063,2.570313 -1.13281,0.875 -3.32812,0.875 -0.82813,0 -1.76563,-0.1875 -0.92969,-0.1875 -1.92969,-0.554688 v -1.625 q 0.96094,0.539063 1.88282,0.8125 0.92187,0.273438 1.8125,0.273438 1.35156,0 2.08593,-0.53125 0.73438,-0.53125 0.73438,-1.515625 0,-0.859375 -0.53125,-1.34375 -0.52344,-0.484375 -1.72656,-0.726563 l -0.96094,-0.1875 q -1.76563,-0.351562 -2.55469,-1.101562 -0.78906,-0.75 -0.78906,-2.085938 0,-1.5468746 1.08594,-2.4374996 1.09375,-0.890625 3.00781,-0.890625 0.82031,0 1.67187,0.1484375 0.85157,0.1484375 1.74219,0.4453125 z"
         inkscape:connector-curvature="0" />
    </g>
    <g
       aria-label="Fusão de Fragmentos"
       transform="matrix(0.26458333,0,0,0.26458333,-0.56696429,4.0443452)"
       style="font-style:normal;font-variant:normal;font-weight:normal;font-stretch:normal;font-size:18.66666603px;line-height:1.25;font-family:serif;-inkscape-font-specification:serif;letter-spacing:0px;word-spacing:0px;fill:#000000;fill-opacity:1;stroke:none"
       id="flowRoot933">
      <path
         id="path983"
         style="font-style:normal;font-variant:normal;font-weight:normal;font-stretch:normal;font-size:16px;font-family:Roboto;-inkscape-font-specification:Roboto;text-align:center;text-anchor:middle"
         d="m 578.78516,33.981769 v 1.359375 q -0.60938,-0.3125 -1.26563,-0.46875 -0.65625,-0.15625 -1.35937,-0.15625 -1.07032,0 -1.60938,0.328125 -0.53125,0.328125 -0.53125,0.984375 0,0.5 0.38281,0.789062 0.38282,0.28125 1.53907,0.539063 l 0.49218,0.109375 q 1.53125,0.328125 2.17188,0.929687 0.64844,0.59375 0.64844,1.664063 0,1.21875 -0.96875,1.929687 -0.96094,0.710938 -2.64844,0.710938 -0.70313,0 -1.46875,-0.140625 -0.75781,-0.132813 -1.60156,-0.40625 v -1.484375 q 0.79687,0.414062 1.57031,0.625 0.77344,0.203125 1.53125,0.203125 1.01562,0 1.5625,-0.34375 0.54687,-0.351563 0.54687,-0.984375 0,-0.585938 -0.39843,-0.898438 -0.39063,-0.3125 -1.72657,-0.601562 l -0.5,-0.117188 q -1.33593,-0.28125 -1.92968,-0.859375 -0.59375,-0.585937 -0.59375,-1.601562 0,-1.234375 0.875,-1.90625 0.875,-0.671875 2.48437,-0.671875 0.79688,0 1.5,0.117187 0.70313,0.117188 1.29688,0.351563 z m -11.96875,0.75 q -1.15625,0 -1.82813,0.90625 -0.67187,0.898437 -0.67187,2.46875 0,1.570312 0.66406,2.476562 0.67187,0.898438 1.83594,0.898438 1.14843,0 1.82031,-0.90625 0.67187,-0.90625 0.67187,-2.46875 0,-1.554688 -0.67187,-2.460938 -0.67188,-0.914062 -1.82031,-0.914062 z m 0,-1.21875 q 1.875,0 2.94531,1.21875 1.07031,1.21875 1.07031,3.375 0,2.148437 -1.07031,3.375 -1.07031,1.21875 -2.94531,1.21875 -1.88282,0 -2.95313,-1.21875 -1.0625,-1.226563 -1.0625,-3.375 0,-2.15625 1.0625,-3.375 1.07031,-1.21875 2.95313,-1.21875 z m -8.25,-2.273438 v 2.484375 h 2.96093 v 1.117188 h -2.96093 v 4.75 q 0,1.070312 0.28906,1.375 0.29687,0.304687 1.19531,0.304687 h 1.47656 v 1.203125 h -1.47656 q -1.66406,0 -2.29687,-0.617187 -0.63282,-0.625 -0.63282,-2.265625 v -4.75 h -1.05468 v -1.117188 h 1.05468 v -2.484375 z m -4.30469,5.953125 v 5.28125 h -1.4375 v -5.234375 q 0,-1.242187 -0.48438,-1.859375 -0.48437,-0.617187 -1.45312,-0.617187 -1.16406,0 -1.83594,0.742187 -0.67187,0.742188 -0.67187,2.023438 v 4.945312 h -1.44532 v -8.75 h 1.44532 v 1.359375 q 0.51562,-0.789062 1.21093,-1.179687 0.70313,-0.390625 1.61719,-0.390625 1.50781,0 2.28125,0.9375 0.77344,0.929687 0.77344,2.742187 z m -9.63281,0.546875 v 0.703125 h -6.60938 q 0.0937,1.484375 0.89063,2.265625 0.80468,0.773438 2.23437,0.773438 0.82813,0 1.60156,-0.203125 0.78125,-0.203125 1.54688,-0.609375 v 1.359375 q -0.77344,0.328125 -1.58594,0.5 -0.8125,0.171875 -1.64844,0.171875 -2.09375,0 -3.32031,-1.21875 -1.21875,-1.21875 -1.21875,-3.296875 0,-2.148438 1.15625,-3.40625 1.16406,-1.265625 3.13281,-1.265625 1.76563,0 2.78907,1.140625 1.03125,1.132812 1.03125,3.085937 z m -1.4375,-0.421875 q -0.0156,-1.179687 -0.66407,-1.882812 -0.64062,-0.703125 -1.70312,-0.703125 -1.20313,0 -1.92969,0.679687 -0.71875,0.679688 -0.82812,1.914063 z m -14.82813,-1.914062 q 0.53906,-0.96875 1.28906,-1.429688 0.75,-0.460937 1.76563,-0.460937 1.36719,0 2.10937,0.960937 0.74219,0.953125 0.74219,2.71875 v 5.28125 h -1.44531 v -5.234375 q 0,-1.257812 -0.44531,-1.867187 -0.44532,-0.609375 -1.35938,-0.609375 -1.11719,0 -1.76562,0.742187 -0.64844,0.742188 -0.64844,2.023438 v 4.945312 h -1.44531 v -5.234375 q 0,-1.265625 -0.44532,-1.867187 -0.44531,-0.609375 -1.375,-0.609375 -1.10156,0 -1.75,0.75 -0.64843,0.742187 -0.64843,2.015625 v 4.945312 h -1.44532 v -8.75 h 1.44532 v 1.359375 q 0.49218,-0.804687 1.17968,-1.1875 0.6875,-0.382812 1.63282,-0.382812 0.95312,0 1.61718,0.484375 0.67188,0.484375 0.99219,1.40625 z m -11.21094,2.59375 q 0,-1.5625 -0.64843,-2.421875 -0.64063,-0.859375 -1.80469,-0.859375 -1.15625,0 -1.80469,0.859375 -0.64062,0.859375 -0.64062,2.421875 0,1.554687 0.64062,2.414062 0.64844,0.859375 1.80469,0.859375 1.16406,0 1.80469,-0.859375 0.64843,-0.859375 0.64843,-2.414062 z m 1.4375,3.390625 q 0,2.234375 -0.99218,3.320312 -0.99219,1.09375 -3.03907,1.09375 -0.75781,0 -1.42968,-0.117187 -0.67188,-0.109375 -1.30469,-0.34375 v -1.398438 q 0.63281,0.34375 1.25,0.507813 0.61719,0.164062 1.25781,0.164062 1.41406,0 2.11719,-0.742187 0.70312,-0.734375 0.70312,-2.226563 v -0.710937 q -0.44531,0.773437 -1.14062,1.15625 -0.69531,0.382812 -1.66406,0.382812 -1.60938,0 -2.59375,-1.226562 -0.98438,-1.226563 -0.98438,-3.25 0,-2.03125 0.98438,-3.257813 0.98437,-1.226562 2.59375,-1.226562 0.96875,0 1.66406,0.382812 0.69531,0.382813 1.14062,1.15625 v -1.328125 h 1.4375 z m -13.03125,-3.3125 q -1.74218,0 -2.41406,0.398437 -0.67187,0.398438 -0.67187,1.359375 0,0.765625 0.5,1.21875 0.50781,0.445313 1.375,0.445313 1.19531,0 1.91406,-0.84375 0.72656,-0.851563 0.72656,-2.257813 v -0.320312 z m 2.86719,-0.59375 v 4.992187 h -1.4375 v -1.328125 q -0.49219,0.796875 -1.22656,1.179688 -0.73438,0.375 -1.79688,0.375 -1.34375,0 -2.14062,-0.75 -0.78906,-0.757813 -0.78906,-2.023438 0,-1.476562 0.98437,-2.226562 0.99219,-0.75 2.95313,-0.75 h 2.01562 v -0.140625 q 0,-0.992188 -0.65625,-1.53125 -0.64844,-0.546875 -1.82812,-0.546875 -0.75,0 -1.46094,0.179687 -0.71094,0.179688 -1.36719,0.539063 v -1.328125 q 0.78906,-0.304688 1.53125,-0.453125 0.74219,-0.15625 1.44531,-0.15625 1.89844,0 2.83594,0.984375 0.9375,0.984375 0.9375,2.984375 z m -8.36719,-2.414063 q -0.24218,-0.140625 -0.53125,-0.203125 -0.28125,-0.07031 -0.625,-0.07031 -1.21875,0 -1.875,0.796875 -0.64843,0.789062 -0.64843,2.273437 v 4.609375 h -1.44532 v -8.75 h 1.44532 v 1.359375 q 0.45312,-0.796875 1.17968,-1.179687 0.72657,-0.390625 1.76563,-0.390625 0.14844,0 0.32812,0.02344 0.17969,0.01563 0.39844,0.05469 z m -13.07031,-4.257812 h 6.70313 v 1.328125 h -5.125 v 3.4375 h 4.625 v 1.328125 h -4.625 v 5.570312 h -1.57813 z m 80.65625,-16.403645 v 0.703125 h -6.60937 q 0.0937,1.484375 0.89062,2.265625 0.80469,0.773438 2.23438,0.773438 0.82812,0 1.60156,-0.203125 0.78125,-0.203125 1.54687,-0.609375 v 1.359375 q -0.77343,0.328125 -1.58593,0.5 -0.8125,0.171875 -1.64844,0.171875 -2.09375,0 -3.32031,-1.21875 -1.21875,-1.21875 -1.21875,-3.296875 0,-2.148438 1.15625,-3.40625 1.16406,-1.265625 3.13281,-1.265625 1.76562,0 2.78906,1.140625 1.03125,1.132812 1.03125,3.085937 z m -1.4375,-0.421875 q -0.0156,-1.179687 -0.66406,-1.882812 -0.64063,-0.703125 -1.70313,-0.703125 -1.20312,0 -1.92968,0.679687 -0.71875,0.679688 -0.82813,1.914063 z M 555.76172,11.718749 V 6.9843744 h 1.4375 V 19.140624 h -1.4375 v -1.3125 q -0.45313,0.78125 -1.14844,1.164063 -0.6875,0.375 -1.65625,0.375 -1.58594,0 -2.58594,-1.265625 -0.99218,-1.265625 -0.99218,-3.328125 0,-2.0625 0.99218,-3.328125 1,-1.265625 2.58594,-1.265625 0.96875,0 1.65625,0.382812 0.69531,0.375 1.14844,1.15625 z m -4.89844,3.054688 q 0,1.585937 0.64844,2.492187 0.65625,0.898438 1.79687,0.898438 1.14063,0 1.79688,-0.898438 0.65625,-0.90625 0.65625,-2.492187 0,-1.585938 -0.65625,-2.484375 -0.65625,-0.90625 -1.79688,-0.90625 -1.14062,0 -1.79687,0.90625 -0.64844,0.898437 -0.64844,2.484375 z m -12.34375,-3.375 q -1.15625,0 -1.82812,0.90625 -0.67188,0.898437 -0.67188,2.46875 0,1.570312 0.66406,2.476562 0.67188,0.898438 1.83594,0.898438 1.14844,0 1.82031,-0.90625 0.67188,-0.90625 0.67188,-2.46875 0,-1.554688 -0.67188,-2.460938 -0.67187,-0.914062 -1.82031,-0.914062 z m 0,-1.21875 q 1.875,0 2.94531,1.21875 1.07032,1.21875 1.07032,3.375 0,2.148437 -1.07032,3.375 -1.07031,1.21875 -2.94531,1.21875 -1.88281,0 -2.95312,-1.21875 -1.0625,-1.226563 -1.0625,-3.375 0,-2.15625 1.0625,-3.375 1.07031,-1.21875 2.95312,-1.21875 z m -9.22656,4.5625 q -1.74219,0 -2.41406,0.398437 -0.67188,0.398438 -0.67188,1.359375 0,0.765625 0.5,1.21875 0.50781,0.445313 1.375,0.445313 1.19531,0 1.91406,-0.84375 0.72657,-0.851563 0.72657,-2.257813 v -0.320312 z m 2.86719,-0.59375 v 4.992187 h -1.4375 v -1.328125 q -0.49219,0.796875 -1.22657,1.179688 -0.73437,0.375 -1.79687,0.375 -1.34375,0 -2.14063,-0.75 -0.78906,-0.757813 -0.78906,-2.023438 0,-1.476562 0.98438,-2.226562 0.99218,-0.75 2.95312,-0.75 h 2.01563 v -0.140625 q 0,-0.992188 -0.65625,-1.53125 -0.64844,-0.546875 -1.82813,-0.546875 -0.75,0 -1.46094,0.179687 -0.71093,0.179688 -1.36718,0.539063 v -1.328125 q 0.78906,-0.304688 1.53125,-0.453125 0.74218,-0.15625 1.44531,-0.15625 1.89844,0 2.83594,0.984375 0.9375,0.984375 0.9375,2.984375 z m -3.74219,-5.7109376 -0.44531,-0.4296875 q -0.17188,-0.15625 -0.30469,-0.2265625 -0.125,-0.078125 -0.22656,-0.078125 -0.29688,0 -0.4375,0.2890625 -0.14063,0.28125 -0.15625,0.921875 h -0.97657 q 0.0156,-1.0546875 0.41407,-1.625 0.39843,-0.578125 1.10937,-0.578125 0.29688,0 0.54688,0.109375 0.25,0.109375 0.53906,0.3671875 l 0.44531,0.4296875 q 0.17188,0.15625 0.29688,0.234375 0.13281,0.070312 0.23437,0.070312 0.29688,0 0.4375,-0.28125 0.14063,-0.2890625 0.15625,-0.9296875 h 0.97656 q -0.0156,1.0546875 -0.41406,1.6328125 -0.39844,0.5703125 -1.10937,0.5703125 -0.29688,0 -0.54688,-0.109375 -0.25,-0.109375 -0.53906,-0.367187 z m -5.86719,2.2109376 v 1.359375 q -0.60937,-0.3125 -1.26562,-0.46875 -0.65625,-0.15625 -1.35938,-0.15625 -1.07031,0 -1.60937,0.328125 -0.53125,0.328125 -0.53125,0.984375 0,0.5 0.38281,0.789062 0.38281,0.28125 1.53906,0.539063 l 0.49219,0.109375 q 1.53125,0.328125 2.17187,0.929687 0.64844,0.59375 0.64844,1.664063 0,1.21875 -0.96875,1.929687 -0.96094,0.710938 -2.64844,0.710938 -0.70312,0 -1.46875,-0.140625 -0.75781,-0.132813 -1.60156,-0.40625 v -1.484375 q 0.79688,0.414062 1.57031,0.625 0.77344,0.203125 1.53125,0.203125 1.01563,0 1.5625,-0.34375 0.54688,-0.351563 0.54688,-0.984375 0,-0.585938 -0.39844,-0.898438 -0.39062,-0.3125 -1.72656,-0.601562 l -0.5,-0.117188 q -1.33594,-0.28125 -1.92969,-0.859375 -0.59375,-0.585937 -0.59375,-1.601562 0,-1.234375 0.875,-1.90625 0.875,-0.671875 2.48438,-0.671875 0.79687,0 1.5,0.117187 0.70312,0.117188 1.29687,0.351563 z m -15.88281,5.039062 v -5.296875 h 1.4375 v 5.242188 q 0,1.242187 0.48437,1.867187 0.48438,0.617188 1.45313,0.617188 1.16406,0 1.83594,-0.742188 0.67968,-0.742187 0.67968,-2.023437 v -4.960938 h 1.4375 v 8.75 h -1.4375 v -1.34375 q -0.52343,0.796875 -1.21875,1.1875 -0.6875,0.382813 -1.60156,0.382813 -1.50781,0 -2.28906,-0.9375 -0.78125,-0.9375 -0.78125,-2.742188 z m 3.61719,-5.507812 z m -11.75,-2.7031251 h 6.70312 v 1.328125 h -5.125 v 3.4375001 h 4.625 v 1.328125 h -4.625 v 5.570312 h -1.57812 z"
         inkscape:connector-curvature="0" />
    </g>
  </g>
  <g
     inkscape:groupmode="layer"
     id="layer4"
     inkscape:label="setas"
     transform="translate(-1.0729189,-81.298843)"
     sodipodi:insensitive="true">
    <path
       style="fill:#e1e1e1;fill-opacity:1;stroke:#000000;stroke-width:0.26458332px;stroke-linecap:butt;stroke-linejoin:miter;stroke-opacity:1"
       d="m 117.5506,96.735576 h 4.74832 v 3.000187 l 4.29948,-7.25242 -4.15774,-7.016181 v 3.141927 h -4.89006 z"
       id="path930"
       inkscape:connector-curvature="0" />
    <path
       style="fill:#e1e1e1;fill-opacity:1;stroke:#000000;stroke-width:0.26458332px;stroke-linecap:butt;stroke-linejoin:miter;stroke-opacity:1"
       d="m 76.205362,96.735577 h 4.74832 v 3.000185 l 4.29948,-7.252418 -4.15774,-7.016181 v 3.141927 h -4.89006 z"
       id="path930-1"
       inkscape:connector-curvature="0" />
    <path
       style="fill:#e1e1e1;fill-opacity:1;stroke:#000000;stroke-width:0.26458332px;stroke-linecap:butt;stroke-linejoin:miter;stroke-opacity:1"
       d="m 34.88761,96.735578 h 4.74832 v 3.000184 l 4.29948,-7.252417 -4.15774,-7.016181 v 3.141927 h -4.89006 z"
       id="path930-7"
       inkscape:connector-curvature="0" />
  </g>
</svg>
